<svg width="134" height="15" viewBox="0 0 134 15" fill="none" xmlns="http://www.w3.org/2000/svg">
<path d="M1.2168 10.834L1.20312 9.44629V1.4209C1.20312 1.1429 1.11654 0.917318 0.943359 0.744141L1.08008 0.607422C1.25326 0.780599 1.47884 0.867188 1.75684 0.867188H7.65625C8.59961 0.867188 9.23763 0.894531 9.57031 0.949219C9.90755 1.00391 10.2015 1.06543 10.4521 1.13379C10.7028 1.19759 10.9124 1.27507 11.0811 1.36621C11.2497 1.45736 11.4229 1.57357 11.6006 1.71484C11.7783 1.85612 11.9196 2.01562 12.0244 2.19336C12.266 2.60352 12.3867 3.0638 12.3867 3.57422C12.3867 4.08008 12.3298 4.51302 12.2158 4.87305C12.1064 5.22852 11.9287 5.54753 11.6826 5.83008C11.1722 6.42253 10.304 6.71875 9.07812 6.71875H5.31152C5.02897 6.71875 4.80111 6.63216 4.62793 6.45898L4.48438 6.58887C4.66667 6.77116 4.75781 6.99902 4.75781 7.27246V9.44629C4.75781 9.7972 4.75326 10.2279 4.74414 10.7383L4.43652 10.7656C4.37728 10.2552 4.2998 10 4.2041 10H1.75684C1.70215 10 1.65658 10.1094 1.62012 10.3281C1.58822 10.5514 1.57227 10.7633 1.57227 10.9639C1.57227 11.1689 1.61556 11.5153 1.70215 12.0029C1.78874 12.4906 1.83203 12.8324 1.83203 13.0283C1.83203 13.4476 1.67936 13.6572 1.37402 13.6572C1.06868 13.6572 0.916016 13.443 0.916016 13.0146C0.916016 12.8096 0.966146 12.4473 1.06641 11.9277C1.16667 11.4082 1.2168 11.0436 1.2168 10.834ZM4.75781 3.7041V4.10742C4.75781 4.3763 4.66667 4.60189 4.48438 4.78418L4.62793 4.92773C4.80566 4.75 5.03353 4.66113 5.31152 4.66113H7.52637C7.98665 4.66113 8.26237 4.63607 8.35352 4.58594C8.44466 4.53125 8.52214 4.47656 8.58594 4.42188C8.69531 4.32161 8.75 4.17806 8.75 3.99121C8.75 3.80436 8.72949 3.66764 8.68848 3.58105C8.65202 3.48991 8.59733 3.41927 8.52441 3.36914C8.4515 3.31901 8.37858 3.27799 8.30566 3.24609C8.23275 3.21419 8.14388 3.19141 8.03906 3.17773C7.89323 3.15951 7.73145 3.15039 7.55371 3.15039H5.31152C5.02897 3.15039 4.80111 3.0638 4.62793 2.89062L4.48438 3.02051C4.66667 3.2028 4.75781 3.43066 4.75781 3.7041ZM3.11719 10.4648L3.29492 12.085C3.29492 12.363 3.19238 12.502 2.9873 12.502C2.78678 12.502 2.68652 12.3607 2.68652 12.0781C2.68652 11.9141 2.72754 11.627 2.80957 11.2168C2.89616 10.8112 2.93945 10.5446 2.93945 10.417C2.93945 10.2939 2.93717 10.1344 2.93262 9.93848C2.93262 9.74251 2.93262 9.57845 2.93262 9.44629L3.24023 9.80859C3.20833 9.80859 3.17871 9.88151 3.15137 10.0273C3.12858 10.1777 3.11719 10.3236 3.11719 10.4648ZM24.8418 2.27539L24.9033 5.76855C24.9033 6.98535 24.7529 7.8763 24.4521 8.44141C24.1696 8.97917 23.7663 9.38249 23.2422 9.65137C22.6452 9.96126 21.8522 10.1618 20.8633 10.2529V11.5312L20.9316 12.2354C20.9316 12.3903 20.8883 12.4678 20.8018 12.4678C20.7152 12.4678 20.6719 12.3174 20.6719 12.0166L20.7129 10.9023C20.7129 10.4102 20.5602 10.1641 20.2549 10.1641C20.0179 10.1641 19.8994 10.3577 19.8994 10.7451C19.8994 10.7451 19.9108 10.9434 19.9336 11.3398C19.9336 11.4766 19.9609 11.6748 20.0156 11.9346C20.0749 12.1989 20.1045 12.3857 20.1045 12.4951C20.1045 12.6045 20.0817 12.6956 20.0361 12.7686C19.9906 12.8415 19.9245 12.8779 19.8379 12.8779C19.7513 12.8779 19.6852 12.8392 19.6396 12.7617C19.5986 12.6888 19.5781 12.5999 19.5781 12.4951C19.5781 12.3903 19.6077 12.2171 19.667 11.9756C19.7308 11.7386 19.7627 11.5859 19.7627 11.5176C19.7627 11.4492 19.7627 11.3786 19.7627 11.3057C19.7627 11.2373 19.7604 11.1667 19.7559 11.0938C19.7513 11.0208 19.7399 10.9297 19.7217 10.8203C19.6852 10.5924 19.5758 10.4785 19.3936 10.4785C19.0563 10.4785 18.8877 10.8112 18.8877 11.4766V11.791C18.8877 11.9596 18.9287 12.2057 19.0107 12.5293C19.0928 12.8529 19.1338 13.0853 19.1338 13.2266C19.1338 13.5775 19.0199 13.7529 18.792 13.7529C18.6781 13.7529 18.5869 13.7051 18.5186 13.6094C18.4548 13.5137 18.4229 13.3906 18.4229 13.2402C18.4229 13.0898 18.4593 12.8346 18.5322 12.4746C18.6097 12.1146 18.6484 11.8411 18.6484 11.6543V10.2939C17.3542 10.2347 16.3835 10.0456 15.7363 9.72656C14.6061 9.17969 14.0251 8.14062 13.9932 6.60938C13.984 6.18555 13.9795 5.55436 13.9795 4.71582L13.9932 1.55762C13.9932 1.28874 13.9043 1.06315 13.7266 0.880859L13.8701 0.744141C14.0387 0.917318 14.2643 1.00391 14.5469 1.00391H16.9668C17.2448 1.00391 17.4704 0.917318 17.6436 0.744141L17.7871 0.880859C17.6139 1.05859 17.5273 1.28418 17.5273 1.55762L17.541 5.07129C17.541 5.75033 17.5592 6.18099 17.5957 6.36328C17.6322 6.54557 17.6709 6.71419 17.7119 6.86914C17.7575 7.01953 17.8099 7.1403 17.8691 7.23145C17.9329 7.32259 18.0127 7.42057 18.1084 7.52539C18.2041 7.62565 18.3135 7.70312 18.4365 7.75781C18.7236 7.88542 19.0039 7.94922 19.2773 7.94922C19.5553 7.94922 19.7695 7.93783 19.9199 7.91504C20.0749 7.8877 20.2093 7.84668 20.3232 7.79199C20.4417 7.73275 20.5465 7.67122 20.6377 7.60742C20.7334 7.53906 20.8132 7.45475 20.877 7.35449C20.9453 7.24967 21.0046 7.15169 21.0547 7.06055C21.1048 6.96484 21.1436 6.84635 21.1709 6.70508C21.2028 6.5638 21.2279 6.44076 21.2461 6.33594C21.2643 6.22656 21.278 6.08984 21.2871 5.92578C21.3008 5.67513 21.3076 5.3903 21.3076 5.07129L21.3213 1.55762C21.3213 1.27962 21.237 1.05404 21.0684 0.880859L21.1982 0.744141C21.3714 0.917318 21.5993 1.00391 21.8818 1.00391H24.3018C24.5889 1.00391 24.8167 0.917318 24.9854 0.744141L25.1221 0.880859C24.9352 1.07227 24.8418 1.53711 24.8418 2.27539ZM21.0273 13.7939C21.0273 14.0081 20.9521 14.1152 20.8018 14.1152C20.6514 14.1152 20.5762 14.0036 20.5762 13.7803C20.5762 13.5615 20.6081 13.3747 20.6719 13.2197C20.7402 13.0693 20.7812 12.9941 20.7949 12.9941C20.8086 12.9941 20.8337 13.0352 20.8701 13.1172C20.9749 13.3542 21.0273 13.5798 21.0273 13.7939ZM31.1172 11.9961L31.1855 11.3057V10.0273C29.9596 9.96354 29.0436 9.7972 28.4375 9.52832C27.8314 9.25488 27.3848 8.91309 27.0977 8.50293C26.9245 8.26139 26.79 7.99251 26.6943 7.69629C26.6032 7.39551 26.4505 7.16992 26.2363 7.01953L26.3389 6.87598C26.5439 7.0127 26.765 7.08105 27.002 7.08105C27.2435 7.08105 27.5511 7.07194 27.9248 7.05371C28.2985 7.03548 28.7201 7.01497 29.1895 6.99219C29.6589 6.96484 29.9938 6.94661 30.1943 6.9375C30.3949 6.92839 30.543 6.90104 30.6387 6.85547C30.7344 6.80534 30.8027 6.71647 30.8438 6.58887L31.1514 6.69141C31.1377 6.72786 31.1309 6.77572 31.1309 6.83496C31.1309 6.98535 31.2562 7.15625 31.5068 7.34766C31.7575 7.53906 32.2109 7.63477 32.8672 7.63477C33.3092 7.63477 33.6237 7.55957 33.8105 7.40918C33.8926 7.34082 33.9336 7.25879 33.9336 7.16309C33.9336 6.93978 33.8105 6.79167 33.5645 6.71875C33.3184 6.64583 33.0199 6.58431 32.6689 6.53418C32.3226 6.47949 31.974 6.4362 31.623 6.4043C31.2767 6.3724 30.9007 6.32682 30.4951 6.26758C30.0895 6.20833 29.7067 6.14453 29.3467 6.07617C28.9867 6.00326 28.6357 5.89844 28.2939 5.76172C27.9567 5.625 27.6673 5.46549 27.4258 5.2832C27.1842 5.09635 26.9883 4.85938 26.8379 4.57227C26.6921 4.2806 26.6191 3.9502 26.6191 3.58105C26.6191 3.21191 26.6761 2.87467 26.79 2.56934C26.9085 2.264 27.068 2.00195 27.2686 1.7832C27.4691 1.56445 27.7106 1.37077 27.9932 1.20215C28.2803 1.03353 28.5788 0.89681 28.8887 0.791992C29.2031 0.687174 29.5449 0.602865 29.9141 0.539062C30.5566 0.420573 31.1628 0.361328 31.7324 0.361328C32.3021 0.361328 32.735 0.370443 33.0312 0.388672C33.332 0.402344 33.6829 0.431966 34.084 0.477539C34.4896 0.518555 34.8542 0.589193 35.1777 0.689453C35.5059 0.785156 35.8294 0.908203 36.1484 1.05859C36.8138 1.36849 37.2809 1.84928 37.5498 2.50098C37.6592 2.7334 37.8096 2.94987 38.001 3.15039L37.9121 3.30762C37.7207 3.17546 37.4997 3.10938 37.249 3.10938H37.1602C36.7956 3.12305 36.2738 3.15039 35.5947 3.19141C34.9202 3.22786 34.485 3.25065 34.2891 3.25977C34.0977 3.26888 33.9587 3.29622 33.8721 3.3418C33.79 3.38737 33.7308 3.47396 33.6943 3.60156L33.3936 3.51953C33.4072 3.47852 33.4141 3.43522 33.4141 3.38965C33.4141 3.19824 33.2591 3.03418 32.9492 2.89746C32.6393 2.75618 32.2884 2.68555 31.8965 2.68555C31.1309 2.68555 30.748 2.83594 30.748 3.13672C30.748 3.4056 31.3223 3.60156 32.4707 3.72461C32.7396 3.75651 33.0449 3.78841 33.3867 3.82031C34.5762 3.94336 35.4876 4.10514 36.1211 4.30566C37.4518 4.72493 38.1172 5.52474 38.1172 6.70508C38.1172 7.18815 38.0169 7.62337 37.8164 8.01074C37.6159 8.39355 37.3538 8.70573 37.0303 8.94727C36.7113 9.1888 36.333 9.38932 35.8955 9.54883C35.1071 9.83594 34.207 9.97949 33.1953 9.97949C32.9219 9.97949 32.7601 9.97721 32.71 9.97266C32.4639 9.97266 32.3408 10.1618 32.3408 10.54V10.7041C32.3408 10.8271 32.3704 11.0072 32.4297 11.2441C32.4935 11.4857 32.5254 11.6657 32.5254 11.7842C32.5254 12.0257 32.4411 12.1465 32.2725 12.1465C32.1859 12.1465 32.1175 12.11 32.0674 12.0371C32.0218 11.9642 31.999 11.873 31.999 11.7637C31.999 11.6543 32.0264 11.4674 32.0811 11.2031C32.1403 10.9434 32.1699 10.7542 32.1699 10.6357C32.1699 10.5173 32.1676 10.4329 32.1631 10.3828C32.1631 10.3372 32.1562 10.278 32.1426 10.2051C32.1335 10.1367 32.1152 10.0866 32.0879 10.0547C32.0241 9.97266 31.9147 9.93164 31.7598 9.93164C31.4772 9.93164 31.3359 10.1777 31.3359 10.6699L31.377 11.791C31.377 12.0918 31.3337 12.2422 31.2471 12.2422C31.1605 12.2422 31.1172 12.1602 31.1172 11.9961ZM44.0234 11.9961L44.0918 11.3057V10.0273C42.8659 9.96354 41.9499 9.7972 41.3438 9.52832C40.7376 9.25488 40.291 8.91309 40.0039 8.50293C39.8307 8.26139 39.6963 7.99251 39.6006 7.69629C39.5094 7.39551 39.3568 7.16992 39.1426 7.01953L39.2451 6.87598C39.4502 7.0127 39.6712 7.08105 39.9082 7.08105C40.1497 7.08105 40.4574 7.07194 40.8311 7.05371C41.2048 7.03548 41.6263 7.01497 42.0957 6.99219C42.5651 6.96484 42.9001 6.94661 43.1006 6.9375C43.3011 6.92839 43.4492 6.90104 43.5449 6.85547C43.6406 6.80534 43.709 6.71647 43.75 6.58887L44.0576 6.69141C44.0439 6.72786 44.0371 6.77572 44.0371 6.83496C44.0371 6.98535 44.1624 7.15625 44.4131 7.34766C44.6637 7.53906 45.1172 7.63477 45.7734 7.63477C46.2155 7.63477 46.5299 7.55957 46.7168 7.40918C46.7988 7.34082 46.8398 7.25879 46.8398 7.16309C46.8398 6.93978 46.7168 6.79167 46.4707 6.71875C46.2246 6.64583 45.9261 6.58431 45.5752 6.53418C45.2288 6.47949 44.8802 6.4362 44.5293 6.4043C44.1829 6.3724 43.807 6.32682 43.4014 6.26758C42.9958 6.20833 42.613 6.14453 42.2529 6.07617C41.8929 6.00326 41.542 5.89844 41.2002 5.76172C40.863 5.625 40.5736 5.46549 40.332 5.2832C40.0905 5.09635 39.8945 4.85938 39.7441 4.57227C39.5983 4.2806 39.5254 3.9502 39.5254 3.58105C39.5254 3.21191 39.5824 2.87467 39.6963 2.56934C39.8148 2.264 39.9743 2.00195 40.1748 1.7832C40.3753 1.56445 40.6169 1.37077 40.8994 1.20215C41.1865 1.03353 41.485 0.89681 41.7949 0.791992C42.1094 0.687174 42.4512 0.602865 42.8203 0.539062C43.4629 0.420573 44.069 0.361328 44.6387 0.361328C45.2083 0.361328 45.6413 0.370443 45.9375 0.388672C46.2383 0.402344 46.5892 0.431966 46.9902 0.477539C47.3958 0.518555 47.7604 0.589193 48.084 0.689453C48.4121 0.785156 48.7357 0.908203 49.0547 1.05859C49.7201 1.36849 50.1872 1.84928 50.4561 2.50098C50.5654 2.7334 50.7158 2.94987 50.9072 3.15039L50.8184 3.30762C50.627 3.17546 50.4059 3.10938 50.1553 3.10938H50.0664C49.7018 3.12305 49.18 3.15039 48.501 3.19141C47.8265 3.22786 47.3913 3.25065 47.1953 3.25977C47.0039 3.26888 46.8649 3.29622 46.7783 3.3418C46.6963 3.38737 46.637 3.47396 46.6006 3.60156L46.2998 3.51953C46.3135 3.47852 46.3203 3.43522 46.3203 3.38965C46.3203 3.19824 46.1654 3.03418 45.8555 2.89746C45.5456 2.75618 45.1947 2.68555 44.8027 2.68555C44.0371 2.68555 43.6543 2.83594 43.6543 3.13672C43.6543 3.4056 44.2285 3.60156 45.377 3.72461C45.6458 3.75651 45.9512 3.78841 46.293 3.82031C47.4824 3.94336 48.3939 4.10514 49.0273 4.30566C50.3581 4.72493 51.0234 5.52474 51.0234 6.70508C51.0234 7.18815 50.9232 7.62337 50.7227 8.01074C50.5221 8.39355 50.2601 8.70573 49.9365 8.94727C49.6175 9.1888 49.2393 9.38932 48.8018 9.54883C48.0133 9.83594 47.1133 9.97949 46.1016 9.97949C45.8281 9.97949 45.6663 9.97721 45.6162 9.97266C45.3701 9.97266 45.2471 10.1618 45.2471 10.54V10.7041C45.2471 10.8271 45.2767 11.0072 45.3359 11.2441C45.3997 11.4857 45.4316 11.6657 45.4316 11.7842C45.4316 12.0257 45.3473 12.1465 45.1787 12.1465C45.0921 12.1465 45.0238 12.11 44.9736 12.0371C44.9281 11.9642 44.9053 11.873 44.9053 11.7637C44.9053 11.6543 44.9326 11.4674 44.9873 11.2031C45.0465 10.9434 45.0762 10.7542 45.0762 10.6357C45.0762 10.5173 45.0739 10.4329 45.0693 10.3828C45.0693 10.3372 45.0625 10.278 45.0488 10.2051C45.0397 10.1367 45.0215 10.0866 44.9941 10.0547C44.9303 9.97266 44.821 9.93164 44.666 9.93164C44.3835 9.93164 44.2422 10.1777 44.2422 10.6699L44.2832 11.791C44.2832 12.0918 44.2399 12.2422 44.1533 12.2422C44.0667 12.2422 44.0234 12.1602 44.0234 11.9961ZM56.6426 12.4199L56.7178 11.0801C56.7178 10.3145 56.6221 9.93164 56.4307 9.93164C56.2393 9.93164 56.1436 10.1732 56.1436 10.6562V10.8545C56.1436 11.0505 56.1868 11.3421 56.2734 11.7295C56.3646 12.1169 56.4102 12.4108 56.4102 12.6113C56.4102 12.9212 56.2939 13.0762 56.0615 13.0762C55.8337 13.0762 55.7197 12.9212 55.7197 12.6113C55.7197 12.4017 55.7676 12.0964 55.8633 11.6953C55.959 11.2943 56.0068 10.9889 56.0068 10.7793L55.9932 7.99023C55.9932 7.84896 56.0114 7.73958 56.0479 7.66211C56.0889 7.58464 56.1709 7.52767 56.2939 7.49121L56.2256 7.23145C56.1618 7.24967 56.1048 7.25879 56.0547 7.25879C56.0091 7.25879 55.9613 7.24284 55.9111 7.21094C55.8519 7.16992 55.7835 7.08789 55.7061 6.96484L52.2402 1.31836C52.1035 1.09505 51.9167 0.91276 51.6797 0.771484L51.7412 0.655273C51.9691 0.782878 52.2266 0.84668 52.5137 0.84668L55.2686 0.833008C55.542 0.833008 55.7357 0.735026 55.8496 0.539062L56.0615 0.655273C56.0023 0.764648 55.9727 0.885417 55.9727 1.01758C55.9727 1.14518 56.0638 1.36621 56.2461 1.68066C56.4329 1.99512 56.6357 2.30046 56.8545 2.59668C57.0778 2.8929 57.2806 3.22103 57.4629 3.58105C57.6497 3.94108 57.7432 4.25326 57.7432 4.51758H57.8867V4.46289C57.8867 4.03451 58.1829 3.41016 58.7754 2.58984C59.3678 1.76953 59.6641 1.22038 59.6641 0.942383C59.6641 0.869466 59.6322 0.773763 59.5684 0.655273L59.7803 0.539062C59.8942 0.735026 60.0902 0.833008 60.3682 0.833008L62.959 0.84668C63.2415 0.84668 63.4967 0.782878 63.7246 0.655273L63.7861 0.771484C63.54 0.917318 63.3509 1.09961 63.2188 1.31836L59.7188 6.96484C59.6003 7.16081 59.4795 7.25879 59.3564 7.25879C59.3063 7.25879 59.2539 7.24967 59.1992 7.23145L59.1172 7.48438C59.3359 7.55273 59.4453 7.7806 59.4453 8.16797L59.4043 9.11816C59.4043 9.55566 59.5 9.87012 59.6914 10.0615L59.5479 10.1982C59.3701 10.0205 59.1445 9.93164 58.8711 9.93164H57.2715C56.9798 9.93164 56.834 10.3441 56.834 11.1689L56.9365 12.4404C56.9365 12.5999 56.8864 12.6797 56.7861 12.6797C56.6904 12.6797 56.6426 12.5931 56.6426 12.4199Z" fill="#FFF616"/>
<path d="M67.3203 12.2422C67.138 12.2422 67.0469 12.1077 67.0469 11.8389C67.0469 11.57 67.0788 11.2077 67.1426 10.752C67.2064 10.3008 67.2383 9.97949 67.2383 9.78809C67.2383 9.59668 67.2246 9.45085 67.1973 9.35059L64.4219 1.27734C64.3216 0.999349 64.1712 0.791992 63.9707 0.655273L64.0664 0.518555C64.2852 0.668945 64.529 0.744141 64.7979 0.744141H67.3066C67.5892 0.744141 67.7988 0.648438 67.9355 0.457031L68.1133 0.59375C68.0176 0.716797 67.9697 0.878581 67.9697 1.0791C67.9697 1.27962 68.0404 1.59863 68.1816 2.03613C68.3229 2.46908 68.4779 2.88607 68.6465 3.28711C69.0931 4.36263 69.3164 5.21712 69.3164 5.85059H69.4053C69.4053 5.24447 69.6742 4.3877 70.2119 3.28027C70.7542 2.16829 71.0254 1.39128 71.0254 0.949219C71.0254 0.826172 70.9844 0.705404 70.9023 0.586914L71.0801 0.450195C71.2168 0.646159 71.4242 0.744141 71.7021 0.744141H73.6367C73.9102 0.744141 74.1152 0.646159 74.252 0.450195L74.4365 0.586914C74.3499 0.700846 74.3066 0.848958 74.3066 1.03125C74.3066 1.21354 74.3887 1.52572 74.5527 1.96777C74.7214 2.40527 74.9059 2.83138 75.1064 3.24609C75.6442 4.35807 75.9176 5.22624 75.9268 5.85059H76.0156C76.0156 5.19889 76.2389 4.34668 76.6855 3.29395C77.1322 2.23665 77.3555 1.46875 77.3555 0.990234C77.3555 0.839844 77.3122 0.707682 77.2256 0.59375L77.4033 0.457031C77.54 0.648438 77.7497 0.744141 78.0322 0.744141H80.541C80.8099 0.744141 81.0537 0.668945 81.2725 0.518555L81.3613 0.655273C81.1608 0.791992 81.0127 0.999349 80.917 1.27734C80.8851 1.37305 80.7461 1.7627 80.5 2.44629C80.2539 3.12988 80.0078 3.82259 79.7617 4.52441C79.5156 5.22168 79.2604 5.95768 78.9961 6.73242C78.39 8.48698 78.0869 9.44629 78.0869 9.61035C78.0869 9.77441 78.1302 9.91341 78.2168 10.0273L78.0322 10.1641C77.8955 9.9681 77.6882 9.87012 77.4102 9.87012L74.874 9.86328C74.5915 9.86328 74.3841 9.95898 74.252 10.1504L74.0674 10.0273C74.1494 9.91797 74.1904 9.76758 74.1904 9.57617C74.1904 9.38021 74.113 9.07259 73.958 8.65332C73.8031 8.22949 73.6322 7.82389 73.4453 7.43652C72.9531 6.39746 72.707 5.58171 72.707 4.98926H72.625C72.625 5.59082 72.3766 6.41113 71.8799 7.4502C71.3831 8.4847 71.1348 9.21842 71.1348 9.65137C71.1348 9.7972 71.1781 9.92253 71.2646 10.0273L71.0801 10.1504C70.9479 9.95898 70.7406 9.86328 70.458 9.86328L67.9287 9.87012C67.6598 9.87012 67.5254 9.94987 67.5254 10.1094L67.6416 11.7842C67.6416 11.8981 67.6143 12.0029 67.5596 12.0986C67.5049 12.1943 67.4251 12.2422 67.3203 12.2422ZM82.1338 10.4375L82.1543 11.5244C82.1543 11.7432 82.1201 11.9072 82.0518 12.0166C81.9834 12.1305 81.9014 12.1875 81.8057 12.1875C81.6143 12.1875 81.5186 12.0029 81.5186 11.6338C81.5186 11.2646 81.5641 10.8545 81.6553 10.4033C81.7464 9.95671 81.8262 9.64909 81.8945 9.48047L85.1758 1.40723C85.2214 1.28874 85.2441 1.17253 85.2441 1.05859C85.2441 0.944661 85.2054 0.833008 85.1279 0.723633L85.3193 0.600586C85.4515 0.796549 85.6566 0.894531 85.9346 0.894531H89.0791C89.3525 0.894531 89.5553 0.796549 89.6875 0.600586L89.8857 0.723633C89.8083 0.833008 89.7695 0.937826 89.7695 1.03809C89.7695 1.13835 89.7969 1.25911 89.8516 1.40039L93.2285 9.4873C93.3333 9.74251 93.4951 9.94303 93.7139 10.0889L93.6318 10.2188C93.4085 10.0729 93.1602 10 92.8867 10H91.5469C91.556 10.1003 91.5605 10.1709 91.5605 10.2119C91.5605 10.3623 91.499 10.4375 91.376 10.4375C91.3213 10.4375 91.2712 10.4147 91.2256 10.3691C91.1846 10.3281 91.1641 10.2666 91.1641 10.1846C91.1641 10.1071 91.1686 10.0456 91.1777 10H90.3506C90.1501 10 90.0202 10.1094 89.9609 10.3281C89.888 10.597 89.8516 10.9046 89.8516 11.251C89.8516 11.6019 89.8743 11.9209 89.9199 12.208C89.9655 12.4951 89.9883 12.6911 89.9883 12.7959C89.9883 12.9053 89.9609 12.9919 89.9062 13.0557C89.8561 13.124 89.7923 13.1582 89.7148 13.1582C89.6374 13.1582 89.5713 13.1263 89.5166 13.0625C89.4619 12.9987 89.4346 12.9098 89.4346 12.7959C89.4346 12.682 89.4619 12.4609 89.5166 12.1328C89.5758 11.8047 89.6055 11.5586 89.6055 11.3945V9.47363C89.5599 9.35059 89.5371 9.23665 89.5371 9.13184C89.5371 9.02702 89.5781 8.91536 89.6602 8.79688L89.4824 8.66699C89.3457 8.86296 89.1406 8.96094 88.8672 8.96094H86.0576C85.7842 8.96094 85.5791 8.86523 85.4424 8.67383L85.2646 8.79688C85.3512 8.91992 85.3945 9.03385 85.3945 9.13867C85.3945 9.24349 85.3786 9.35514 85.3467 9.47363V9.48047C85.3057 9.63542 85.2852 9.75391 85.2852 9.83594C85.2852 9.91797 85.3307 10.0251 85.4219 10.1572L85.2441 10.2871C85.1074 10.0957 84.9023 10 84.6289 10H82.1543C82.1406 10.0866 82.1338 10.2324 82.1338 10.4375ZM86.7617 7.06738H88.0674C88.3408 7.06738 88.5869 7.1403 88.8057 7.28613L88.8945 7.15625C88.6803 7.01042 88.5254 6.80762 88.4297 6.54785L87.5615 4.32617C87.4613 4.06641 87.4089 3.80208 87.4043 3.5332H87.3154C87.3063 3.83398 87.2607 4.09831 87.1787 4.32617L86.3926 6.54102C86.2969 6.80534 86.1442 7.01042 85.9346 7.15625L86.0234 7.29297C86.2376 7.14258 86.4837 7.06738 86.7617 7.06738ZM91.1982 12.2627C91.1982 11.9482 91.2575 11.554 91.376 11.0801C91.5081 11.627 91.5742 11.9824 91.5742 12.1465C91.5742 12.388 91.5104 12.5088 91.3828 12.5088C91.2598 12.5088 91.1982 12.4268 91.1982 12.2627ZM102.895 7.88086C102.721 7.74414 102.635 7.58464 102.635 7.40234V7.34766C102.635 7.16536 102.717 6.99219 102.881 6.82812L102.785 6.73926C102.621 6.90332 102.45 6.98535 102.272 6.98535H101.609C101.331 6.98535 101.104 7.07422 100.926 7.25195L100.782 7.1084C100.965 6.92611 101.056 6.70052 101.056 6.43164V5.41992C101.056 5.14648 100.965 4.91862 100.782 4.73633L100.926 4.59961C101.099 4.77279 101.327 4.85938 101.609 4.85938H105.807C106.089 4.85938 106.317 4.77279 106.49 4.59961L106.62 4.73633C106.447 4.90951 106.36 5.13737 106.36 5.41992V8.28418C106.36 8.42546 106.379 8.53939 106.415 8.62598C106.456 8.70801 106.536 8.78092 106.654 8.84473L106.545 9.04297C106.463 9.00195 106.369 8.98145 106.265 8.98145C106.164 8.98145 106.048 9.02474 105.916 9.11133C104.859 9.81771 103.355 10.2142 101.404 10.3008V10.957L101.514 11.7158C101.514 11.8252 101.491 11.9095 101.445 11.9688C101.4 12.028 101.347 12.0576 101.288 12.0576C101.233 12.0576 101.183 12.0303 101.138 11.9756C101.092 11.9209 101.069 11.8662 101.069 11.8115C101.069 11.7614 101.078 11.6908 101.097 11.5996C101.151 11.3171 101.179 11.0299 101.179 10.7383C101.179 10.4466 101.158 10.3008 101.117 10.3008C100.224 10.3008 99.2852 10.2393 98.3008 10.1162C98.2598 10.1025 98.2393 10.3464 98.2393 10.8477C98.2393 11.349 98.2803 11.8662 98.3623 12.3994C98.4489 12.9326 98.4922 13.304 98.4922 13.5137C98.4922 13.9375 98.3623 14.1494 98.1025 14.1494C97.9795 14.1494 97.8724 14.1016 97.7812 14.0059C97.6947 13.9102 97.6514 13.7552 97.6514 13.541C97.6514 13.3314 97.7266 12.9531 97.877 12.4062C98.0273 11.8639 98.1025 11.4401 98.1025 11.1348V10.0684C95.5003 9.48503 94.1992 7.91504 94.1992 5.3584C94.1992 3.41243 95.0013 2.05208 96.6055 1.27734C97.5306 0.826172 98.6608 0.600586 99.9961 0.600586C102.152 0.600586 103.806 1.02214 104.959 1.86523C105.583 2.32096 105.982 2.84049 106.155 3.42383C106.237 3.69727 106.383 3.9069 106.593 4.05273L106.49 4.18945C106.303 4.05273 106.057 3.98438 105.752 3.98438L102.867 4.08008C102.58 4.09831 102.386 4.20768 102.286 4.4082L102.061 4.29883C102.097 4.22135 102.115 4.13249 102.115 4.03223C102.115 3.93197 102.038 3.7793 101.883 3.57422C101.728 3.36458 101.514 3.20736 101.24 3.10254C100.971 2.99316 100.614 2.93848 100.167 2.93848C99.7249 2.93848 99.3649 3.00228 99.0869 3.12988C98.8089 3.25749 98.5879 3.43294 98.4238 3.65625C98.1048 4.10742 97.9453 4.70443 97.9453 5.44727C97.9453 6.1901 98.1823 6.80306 98.6562 7.28613C99.1348 7.76465 99.7591 8.00391 100.529 8.00391C101.299 8.00391 101.885 7.95378 102.286 7.85352C102.359 7.83529 102.43 7.82617 102.498 7.82617C102.566 7.82617 102.671 7.88086 102.812 7.99023L102.895 7.88086ZM114.194 11.1074L114.242 10.4512C114.242 10.3372 114.188 10.2484 114.078 10.1846C113.969 10.1253 113.85 10.0957 113.723 10.0957C113.595 10.0957 113.481 10.1299 113.381 10.1982C113.281 10.2666 113.23 10.3646 113.23 10.4922V12.0645C113.23 12.2923 113.278 12.6273 113.374 13.0693C113.47 13.5114 113.518 13.8258 113.518 14.0127C113.518 14.2041 113.477 14.3613 113.395 14.4844C113.312 14.6074 113.199 14.6689 113.053 14.6689C112.911 14.6689 112.804 14.6051 112.731 14.4775C112.659 14.3499 112.622 14.1836 112.622 13.9785C112.622 13.7734 112.674 13.418 112.779 12.9121C112.884 12.4062 112.937 12.0143 112.937 11.7363C112.937 10.6107 112.727 10.0479 112.308 10.0479C111.743 10.0479 111.46 10.0251 111.46 9.97949V9.99316C111.46 10.3076 111.528 10.7679 111.665 11.374C111.806 11.9847 111.877 12.4222 111.877 12.6865C111.877 12.9508 111.829 13.1673 111.733 13.3359C111.638 13.5091 111.49 13.5957 111.289 13.5957C111.093 13.5957 110.938 13.5137 110.824 13.3496C110.715 13.1855 110.66 12.9714 110.66 12.707C110.66 12.4473 110.726 11.9984 110.858 11.3604C110.991 10.7269 111.057 10.2461 111.057 9.91797C109.977 9.57617 109.163 9.0179 108.616 8.24316C108.074 7.46842 107.803 6.51139 107.803 5.37207C107.803 3.01139 108.992 1.52116 111.371 0.901367C112.141 0.700846 112.937 0.600586 113.757 0.600586C114.582 0.600586 115.281 0.646159 115.855 0.737305C116.434 0.828451 116.993 0.990234 117.53 1.22266C118.073 1.45052 118.533 1.74219 118.911 2.09766C119.294 2.44857 119.599 2.9043 119.827 3.46484C120.055 4.02083 120.169 4.65658 120.169 5.37207C120.169 6.8304 119.759 7.96061 118.938 8.7627C118.118 9.56022 116.965 10.0501 115.479 10.2324C115.461 10.2643 115.452 10.3145 115.452 10.3828L115.486 10.7588C115.486 10.9912 115.423 11.1074 115.295 11.1074C115.167 11.1074 115.104 10.9958 115.104 10.7725L115.124 10.3896C115.124 10.2529 115.026 10.1846 114.83 10.1846C114.812 10.2256 114.803 10.3031 114.803 10.417L114.837 11.0801C114.837 11.2168 114.812 11.349 114.762 11.4766C114.712 11.6042 114.627 11.668 114.509 11.668C114.299 11.668 114.194 11.4811 114.194 11.1074ZM111.61 5.37891C111.61 7.04688 112.403 7.88086 113.989 7.88086C115.575 7.88086 116.368 7.04688 116.368 5.37891C116.368 4.61328 116.163 4.02767 115.753 3.62207C115.343 3.21647 114.755 3.01367 113.989 3.01367C113.224 3.01367 112.636 3.21647 112.226 3.62207C111.815 4.02767 111.61 4.61328 111.61 5.37891ZM124.53 12.1191L124.694 10.2666C124.694 10.1208 124.612 10 124.448 9.9043C124.179 9.75391 123.851 9.67871 123.464 9.67871C122.944 9.67871 122.587 9.78125 122.391 9.98633C122.304 10.0775 122.261 10.2096 122.261 10.3828C122.261 10.5605 122.313 10.8682 122.418 11.3057C122.523 11.7432 122.575 12.0508 122.575 12.2285C122.575 12.4108 122.541 12.5544 122.473 12.6592C122.409 12.7686 122.313 12.8232 122.186 12.8232C122.058 12.8232 121.96 12.7686 121.892 12.6592C121.823 12.5544 121.789 12.4108 121.789 12.2285C121.789 12.0462 121.844 11.7318 121.953 11.2852C122.067 10.8385 122.124 10.5013 122.124 10.2734L122.117 1.89258C122.117 1.35482 121.953 0.905924 121.625 0.545898L121.769 0.402344C122.138 0.730469 122.587 0.894531 123.115 0.894531H125.159C125.451 0.894531 125.697 0.860352 125.897 0.791992C126.103 0.719076 126.267 0.577799 126.39 0.368164L126.615 0.477539C126.497 0.760091 126.438 1.02669 126.438 1.27734C126.438 1.48242 126.798 1.9974 127.518 2.82227C128.456 3.89779 129.06 4.62012 129.329 4.98926C129.598 5.3584 129.773 5.6569 129.855 5.88477H130.266C130.042 5.55664 129.931 5.09408 129.931 4.49707C129.931 4.21908 129.965 3.80436 130.033 3.25293C130.102 2.69694 130.136 2.27995 130.136 2.00195C130.136 1.25456 129.899 0.769206 129.425 0.545898L129.568 0.402344C129.938 0.730469 130.386 0.894531 130.915 0.894531H132.316C132.845 0.894531 133.294 0.730469 133.663 0.402344L133.8 0.545898C133.476 0.910482 133.314 1.35938 133.314 1.89258L133.301 10.2393C133.301 10.4352 133.346 10.7269 133.438 11.1143C133.529 11.5062 133.574 11.8001 133.574 11.9961C133.574 12.2878 133.463 12.4336 133.239 12.4336C133.016 12.4336 132.904 12.2878 132.904 11.9961C132.904 11.8047 132.948 11.5221 133.034 11.1484C133.121 10.7793 133.164 10.5241 133.164 10.3828C133.164 10.2461 133.118 10.1481 133.027 10.0889C132.936 10.0296 132.847 10 132.761 10H130.061C129.678 10 129.486 10.3486 129.486 11.0459C129.486 11.333 129.539 11.7477 129.644 12.29C129.753 12.8369 129.808 13.2493 129.808 13.5273C129.808 13.9238 129.66 14.1221 129.363 14.1221C129.067 14.1221 128.919 13.9215 128.919 13.5205C128.919 13.2653 128.976 12.8939 129.09 12.4062C129.208 11.9186 129.27 11.5518 129.274 11.3057L129.288 10.3965C129.302 9.97266 129.258 9.69694 129.158 9.56934L125.884 5.41992C125.797 5.30599 125.701 5.06901 125.597 4.70898L125.18 4.72266C125.417 4.96875 125.535 5.24219 125.535 5.54297V9.44629L125.665 12.9053C125.665 12.9782 125.642 13.0397 125.597 13.0898C125.556 13.1445 125.496 13.1719 125.419 13.1719C125.346 13.1719 125.285 13.14 125.234 13.0762C125.184 13.0169 125.159 12.9486 125.159 12.8711L125.241 10.2461C125.241 10.1914 125.221 10.1413 125.18 10.0957C125.139 10.0501 125.091 10.0273 125.036 10.0273C124.918 10.0273 124.858 10.1185 124.858 10.3008C124.858 10.4831 124.888 10.7816 124.947 11.1963C125.011 11.611 125.043 11.8958 125.043 12.0508C125.043 12.3971 124.956 12.5703 124.783 12.5703C124.615 12.5703 124.53 12.4199 124.53 12.1191Z" fill="#D54C91"/>
</svg>
